<?xml version="1.0" encoding="utf-8"?>
<!-- Svg Vector Icons : http://www.onlinewebfonts.com/icon -->
<!DOCTYPE svg PUBLIC "-//W3C//DTD SVG 1.1//EN" "http://www.w3.org/Graphics/SVG/1.1/DTD/svg11.dtd">
<svg version="1.1" xmlns="http://www.w3.org/2000/svg" xmlns:xlink="http://www.w3.org/1999/xlink" x="0px" y="0px" viewBox="0 0 1000 1000" enable-background="new 0 0 1000 1000" xml:space="preserve">
<metadata> Svg Vector Icons : http://www.onlinewebfonts.com/icon </metadata>
<g><g transform="translate(0.000000,511.000000) scale(0.100000,-0.100000)"><path d="M3612.5,4797c-88.2-26.7-217.5-158-250.3-252.4l-24.6-73.9h-289.3c-467.8,0-705.8-82.1-968.4-332.4c-160-151.8-260.6-301.6-320.1-480.1c-30.8-96.4-326.2-1860.9-326.2-1955.2c0-14.4,63.6-22.6,205.2-22.6c112.8,0,205.2,2.1,205.2,6.2c0,4.1,65.7,412.4,143.6,908.9c127.2,789.9,151.8,917.1,205.2,1025.8c73.9,151.8,225.7,299.5,385.7,373.4c108.7,51.3,139.5,55.4,435,61.6l318,6.2l51.3-108.8c34.9-71.8,80-127.2,139.5-170.3l90.3-61.6l1341.8-6.1c915-4.1,1370.5,2,1425.9,16.4c100.5,26.7,227.8,149.8,256.5,246.2l20.5,71.8h326.2c318,0,332.4-2,445.2-57.4c170.3-84.1,311.9-219.5,383.7-369.3c53.3-110.8,77.9-235.9,197-978.7c73.8-467.8,139.5-876.1,145.6-906.8l12.3-57.4h203.1c110.8,0,203.1,8.2,203.1,16.4c0,80-297.5,1850.6-328.3,1953.2c-71.8,242.1-299.5,521.1-537.5,662.7c-197,114.9-328.3,143.6-703.7,155.9l-346.7,12.3l-20.5,71.8c-26.7,92.3-153.9,217.5-252.4,244.2C6283.7,4825.7,3708.9,4823.6,3612.5,4797z"/><path d="M541.1,1282.5C268.2,1196.3,100,974.7,100,701.8c0-139.5,1118.2-4589.6,1185.9-4714.7c80-149.8,318-381.6,469.8-459.6c264.7-133.4,78-125.1,3247.8-125.1c3178,0,2991.3-8.2,3249.8,129.3c166.2,86.2,398,318,471.9,471.9c39,80,240,841.2,621.6,2369.7C9866,443.3,9909,634.1,9898.8,751.1c-18.5,225.7-145.7,408.3-350.8,502.7l-102.6,47.2l-4411.1,4.1C1517.7,1307.1,606.8,1303,541.1,1282.5z M1786.5-135.3c30.8-180.5,55.4-344.7,55.4-363.1c2.1-34.9-30.8-36.9-408.3-36.9h-408.3l-20.5,78c-10.3,41-49.2,190.8-84.1,332.4C885.8,16.6,853,147.9,846.8,168.4c-10.3,32.8,16.4,34.9,435,30.8L1729,193L1786.5-135.3z M3780.7,65.8c6.2-78,16.4-244.1,24.6-371.3l12.3-229.8l-775.5,4.1l-775.5,6.2l-57.5,328.3c-30.8,180.5-55.4,344.7-55.4,365.2c-2.1,32.8,49.2,34.9,806.3,34.9h808.4L3780.7,65.8z M5815.9,117.1c-6.2-49.2-16.4-215.4-24.6-369.3L5779-535.3h-775.5H4228L4215.7-283c-8.2,137.5-18.5,303.7-24.6,369.3l-12.3,116.9h824.8h822.7L5815.9,117.1z M7853.3,178.6c0-14.3-26.7-178.5-55.4-365.2l-55.4-338.5l-777.6-6.2l-775.5-4.1l12.3,270.8c8.2,149.8,18.5,316,24.6,371.3l12.3,96.4H7047C7680.9,203.3,7855.3,197.1,7853.3,178.6z M9160.2,168.4c-6.2-20.5-39-151.8-73.8-293.4c-34.9-141.6-73.9-291.3-84.1-332.4l-20.5-78h-408.3c-313.9,0-410.3,6.1-410.3,26.7c0,12.3,24.6,178.5,55.4,369.3l55.4,342.6h449.3C9139.6,203.3,9170.4,201.2,9160.2,168.4z M2032.7-1633c63.6-393.9,116.9-724.2,119-732.5c0-10.3-149.8-16.4-334.4-16.4h-332.4l-180.5,724.2c-98.5,396-178.5,728.3-178.5,738.6c0,8.2,176.4,12.3,393.9,10.3l393.9-6.2L2032.7-1633z M3834-908.7c4.1-53.3,82.1-1430,82.1-1446.4c0-20.5-147.7-26.7-672.9-26.7h-670.9l-119,714c-63.6,391.9-116.9,724.3-116.9,738.6c0,18.5,164.1,24.6,748.9,24.6C3497.6-904.6,3834-906.7,3834-908.7z M5750.3-1031.8c-12.3-168.2-69.8-1224.8-69.8-1296.6v-53.3h-677.1c-631.9,0-677.1,2.1-677.1,36.9c0,59.5-59.5,1112-71.8,1282.3l-12.3,158h759.1h759.1L5750.3-1031.8z M7666.6-960c-4.1-32.8-59.5-365.2-121-738.6l-110.8-683.2h-670.9c-668.8,0-672.9,0-672.9,43.1c0,80,61.6,1177.6,73.8,1306.9l12.3,127.2h748.9h748.8L7666.6-960z M8881.2-919c0-10.3-80-342.6-178.5-738.6l-180.5-724.2h-332.4c-217.5,0-334.4,8.2-334.4,20.5c0,30.8,225.7,1399.2,235.9,1432.1c6.2,18.5,104.6,24.6,400.1,24.6C8704.7-904.6,8881.2-910.8,8881.2-919z M2223.5-2796.3c6.2-26.7,47.2-277,92.3-560.1c45.1-281.1,88.2-537.5,94.4-568.3l12.3-57.4h-133.4c-104.6,0-155.9,12.3-242.1,57.4c-186.7,98.5-221.6,164.1-344.7,652.4c-57.5,235.9-110.8,449.3-116.9,476l-12.3,45.1h320.1C2207.1-2751.1,2213.2-2751.1,2223.5-2796.3z M3936.6-2765.5c0-10.3,14.4-246.2,30.8-529.3c16.4-281.1,30.8-551.9,30.8-599.1v-88.2h-580.6h-582.7l-102.6,615.5l-102.6,615.5h654.5C3643.2-2751.1,3936.6-2757.3,3936.6-2765.5z M5651.8-2857.8c-6.2-59.5-22.6-336.5-36.9-615.5l-24.6-508.8h-586.8h-588.8l-24.6,478c-12.3,260.6-28.7,537.5-36.9,615.5l-12.3,137.5h662.7h660.6L5651.8-2857.8z M7362.9-2775.8c0-14.4-43.1-291.3-96.4-615.5l-98.5-590.9h-578.6h-580.6v108.7c0,78,34.9,691.4,61.6,1118.2c0,2.1,291.3,4.1,646.3,4.1C7219.3-2751.1,7362.9-2757.3,7362.9-2775.8z M8429.8-2755.2c0-4.1-55.4-221.6-121.1-486.2c-137.4-539.6-160-584.7-350.8-683.2c-84.1-45.1-135.4-57.4-238-57.4c-71.8,0-131.3,6.2-131.3,12.3c0,18.5,184.6,1122.3,194.9,1173.6c10.3,45.1,16.4,45.1,328.3,45.1C8286.2-2751.1,8429.8-2753.2,8429.8-2755.2z"/></g></g>
</svg>